<?xml version="1.0" encoding="utf-8"?>
<svg xmlns="http://www.w3.org/2000/svg" data-name="Layer 1" id="Layer_1" viewBox="0 0 1316.94 192.4">
  <defs>
    <style>
      .cls-1 {
        fill: #fff;
      }

      .cls-2 {
        fill: #f26924;
      }

      .cls-3 {
        fill: #001722;
      }
    </style>
  </defs>
  <polygon class="cls-2" points="0 192.26 0 0 192.26 0 0 192.26"/>
  <polygon class="cls-2" points="384.51 192.26 384.51 0 192.26 0 384.51 192.26"/>
  <polygon class="cls-1" points="192.26 0 192.26 192.26 384.51 192.26 192.26 0"/>
  <polygon class="cls-3" points="192.26 0 192.26 192.26 0 192.26 192.26 0"/>
  <g>
    <g>
      <polygon class="cls-3" points="417.87 154.83 428.78 191.38 438.47 191.38 445.65 170.2 452.82 191.38 462.51 191.38 473.42 154.83 463.48 154.83 457.18 178.44 449.43 154.83 441.86 154.83 434.11 178.44 427.81 154.83 417.87 154.83"/>
      <rect class="cls-3" height="36.55" width="9.5" x="500.51" y="154.83"/>
      <polygon class="cls-3" points="552.38 191.38 552.38 169.04 569.93 191.38 579.38 191.38 579.38 154.83 569.93 154.83 569.93 177.18 552.38 154.83 542.88 154.83 542.88 191.38 552.38 191.38"/>
      <path class="cls-3" d="M642.88,166.15c-.94-2.21-2.22-4.15-3.86-5.82s-3.54-2.99-5.72-4c-2.18-1-4.51-1.5-7.01-1.5h-14.06v36.55h14.06c2.52,0,4.87-.5,7.05-1.5,2.18-1,4.09-2.34,5.72-4.03s2.91-3.63,3.83-5.84c.92-2.21,1.38-4.51,1.38-6.91,0-2.42-.47-4.74-1.4-6.95Zm-9.24,11.04c-.47,1.24-1.15,2.32-2.03,3.22-.89,.9-1.98,1.62-3.27,2.13-1.29,.52-2.76,.78-4.41,.78h-2.18v-20.45h2.18c1.62,0,3.07,.26,4.36,.78,1.29,.52,2.38,1.23,3.27,2.13s1.57,1.99,2.06,3.25,.73,2.62,.73,4.07-.24,2.85-.71,4.1Z"/>
      <path class="cls-3" d="M712.87,165.52c-1-2.34-2.4-4.39-4.19-6.13-1.79-1.74-3.93-3.11-6.42-4.1-2.49-.99-5.2-1.48-8.14-1.48s-5.69,.49-8.16,1.48c-2.47,.99-4.6,2.35-6.38,4.1-1.78,1.74-3.16,3.79-4.17,6.13-1,2.34-1.5,4.87-1.5,7.58s.5,5.25,1.5,7.58c1,2.34,2.39,4.39,4.17,6.13,1.78,1.74,3.9,3.11,6.38,4.1,2.47,.98,5.19,1.48,8.16,1.48s5.66-.49,8.14-1.48c2.49-.99,4.63-2.35,6.42-4.1,1.79-1.74,3.19-3.79,4.19-6.13s1.5-4.87,1.5-7.58-.5-5.24-1.5-7.58Zm-9.26,11.61c-.55,1.23-1.3,2.3-2.25,3.2s-2.06,1.61-3.3,2.1c-1.24,.5-2.56,.75-3.95,.75s-2.71-.25-3.95-.75c-1.24-.5-2.34-1.2-3.27-2.1s-1.68-1.97-2.23-3.2c-.55-1.23-.83-2.57-.83-4.03s.28-2.8,.83-4.03c.55-1.23,1.29-2.3,2.23-3.2,.94-.9,2.03-1.61,3.27-2.11s2.56-.75,3.95-.75,2.7,.25,3.95,.75c1.24,.5,2.34,1.21,3.3,2.11s1.7,1.97,2.25,3.2,.83,2.57,.83,4.03-.28,2.8-.83,4.03Z"/>
      <polygon class="cls-3" points="741.19 154.83 752.09 191.38 761.79 191.38 768.95 170.2 776.13 191.38 785.82 191.38 796.74 154.83 786.8 154.83 780.49 178.44 772.74 154.83 765.18 154.83 757.42 178.44 751.12 154.83 741.19 154.83"/>
      <path class="cls-3" d="M848.84,156.77c-1.81-.97-3.7-1.7-5.67-2.2-1.97-.5-3.86-.75-5.67-.75-1.93,0-3.69,.29-5.26,.88-1.57,.58-2.89,1.4-3.98,2.45-1.08,1.05-1.92,2.31-2.52,3.78s-.9,3.11-.9,4.92,.28,3.31,.85,4.48c.56,1.18,1.31,2.15,2.23,2.93,.92,.78,1.97,1.4,3.15,1.86,1.18,.47,2.38,.9,3.62,1.29,1.03,.35,1.91,.68,2.64,.97,.73,.29,1.31,.61,1.77,.95s.78,.71,.97,1.12c.2,.4,.29,.88,.29,1.43,0,.9-.38,1.72-1.14,2.42-.76,.71-1.91,1.07-3.47,1.07-1.36,0-2.73-.3-4.12-.92-1.39-.61-2.8-1.55-4.22-2.81l-4.07,7.66c3.94,2.75,8.23,4.12,12.85,4.12,2.23,0,4.22-.3,5.99-.9,1.77-.6,3.25-1.44,4.46-2.52s2.13-2.38,2.76-3.91c.63-1.52,.95-3.21,.95-5.09,0-2.78-.72-5.04-2.16-6.77-1.43-1.73-3.71-3.11-6.81-4.15-.78-.26-1.56-.5-2.35-.73-.79-.23-1.5-.49-2.13-.8-.63-.3-1.14-.67-1.53-1.09-.39-.42-.58-.95-.58-1.6,0-.94,.39-1.69,1.17-2.27s1.78-.88,3-.88c.97,0,1.97,.2,3.01,.61,1.03,.4,2.07,1.02,3.1,1.86l3.78-7.42Z"/>
      <path class="cls-3" d="M950.73,182.71l.73-.68c.9-.84,1.7-1.64,2.4-2.4,.69-.76,1.32-1.51,1.87-2.25l-5.38-5.19c-1.23,1.65-2.81,3.4-4.75,5.24l-4.6-4.84c1.26-.64,2.32-1.29,3.18-1.91,.85-.63,1.55-1.29,2.08-1.99,.54-.69,.91-1.43,1.14-2.22,.23-.79,.34-1.67,.34-2.64,0-1.42-.28-2.74-.85-3.95-.56-1.21-1.36-2.27-2.37-3.18-1.02-.9-2.22-1.61-3.61-2.1-1.39-.5-2.91-.75-4.55-.75s-3.11,.25-4.51,.75c-1.39,.5-2.59,1.19-3.61,2.08s-1.82,1.95-2.4,3.17c-.58,1.23-.88,2.56-.88,3.98,0,2.13,.94,4.38,2.81,6.74l.63,.73-1.02,.48c-1.19,.55-2.2,1.09-3.03,1.62-.83,.54-1.57,1.17-2.25,1.91-.9,.97-1.54,1.98-1.91,3.03-.37,1.05-.56,2.25-.56,3.61,0,1.52,.29,2.92,.88,4.19,.58,1.28,1.39,2.38,2.42,3.32,1.03,.94,2.26,1.67,3.69,2.18,1.42,.52,2.99,.78,4.7,.78,4,0,8.19-1.45,12.56-4.36l3.2,3.35h11.83l-8.18-8.68Zm-17.06,1.21c-.58,0-1.12-.09-1.62-.27-.5-.18-.95-.42-1.33-.73-.39-.3-.7-.68-.93-1.12-.23-.44-.34-.91-.34-1.43,0-1.42,1.14-2.85,3.45-4.27l5.77,6.2c-1.72,1.07-3.38,1.6-5,1.6Zm3.15-15.76c-1.91-2.07-2.86-3.69-2.86-4.84,0-.88,.29-1.6,.88-2.18,.58-.58,1.31-.88,2.18-.88,.94,0,1.7,.33,2.3,1,.59,.66,.9,1.45,.9,2.35,0,1.68-1.13,3.2-3.4,4.55Z"/>
      <path class="cls-3" d="M1060.23,166.15c-.94-2.21-2.22-4.15-3.86-5.82-1.63-1.67-3.54-2.99-5.72-4s-4.51-1.5-7.01-1.5h-14.06v36.55h14.06c2.52,0,4.87-.5,7.05-1.5s4.09-2.34,5.72-4.03c1.63-1.68,2.91-3.63,3.83-5.84,.92-2.21,1.38-4.51,1.38-6.91,0-2.42-.47-4.74-1.4-6.95Zm-9.24,11.04c-.47,1.24-1.15,2.32-2.03,3.22-.89,.9-1.98,1.62-3.27,2.13-1.29,.52-2.76,.78-4.41,.78h-2.18v-20.45h2.18c1.62,0,3.07,.26,4.36,.78,1.29,.52,2.38,1.23,3.27,2.13s1.57,1.99,2.06,3.25c.49,1.26,.73,2.62,.73,4.07,0,1.49-.24,2.85-.71,4.1Z"/>
      <path class="cls-3" d="M1130.22,165.52c-1-2.34-2.4-4.39-4.19-6.13-1.79-1.74-3.93-3.11-6.42-4.1-2.49-.99-5.2-1.48-8.14-1.48s-5.69,.49-8.16,1.48c-2.47,.99-4.6,2.35-6.38,4.1s-3.16,3.79-4.17,6.13c-1,2.34-1.5,4.87-1.5,7.58s.5,5.25,1.5,7.58c1,2.34,2.39,4.39,4.17,6.13s3.9,3.11,6.38,4.1c2.47,.98,5.19,1.48,8.16,1.48s5.66-.49,8.14-1.48c2.49-.99,4.63-2.35,6.42-4.1,1.79-1.74,3.19-3.79,4.19-6.13,1-2.34,1.5-4.87,1.5-7.58s-.5-5.24-1.5-7.58Zm-9.26,11.61c-.55,1.23-1.3,2.3-2.25,3.2s-2.06,1.61-3.3,2.1c-1.24,.5-2.56,.75-3.95,.75s-2.71-.25-3.95-.75c-1.24-.5-2.34-1.2-3.27-2.1-.94-.9-1.68-1.97-2.23-3.2s-.83-2.57-.83-4.03,.28-2.8,.83-4.03c.55-1.23,1.29-2.3,2.23-3.2,.94-.9,2.03-1.61,3.27-2.11s2.56-.75,3.95-.75,2.7,.25,3.95,.75c1.24,.5,2.34,1.21,3.3,2.11,.95,.9,1.7,1.97,2.25,3.2,.55,1.23,.83,2.57,.83,4.03s-.28,2.8-.83,4.03Z"/>
      <path class="cls-3" d="M1200.27,165.52c-1-2.34-2.4-4.39-4.19-6.13-1.79-1.74-3.93-3.11-6.43-4.1-2.49-.99-5.2-1.48-8.14-1.48s-5.69,.49-8.16,1.48c-2.47,.99-4.6,2.35-6.38,4.1s-3.16,3.79-4.17,6.13c-1,2.34-1.5,4.87-1.5,7.58s.5,5.25,1.5,7.58c1,2.34,2.39,4.39,4.17,6.13,1.78,1.74,3.91,3.11,6.38,4.1,2.47,.98,5.19,1.48,8.16,1.48s5.66-.49,8.14-1.48c2.49-.99,4.63-2.35,6.43-4.1,1.79-1.74,3.19-3.79,4.19-6.13,1-2.34,1.5-4.87,1.5-7.58s-.5-5.24-1.5-7.58Zm-9.26,11.61c-.55,1.23-1.3,2.3-2.25,3.2s-2.06,1.61-3.3,2.1c-1.24,.5-2.56,.75-3.95,.75s-2.7-.25-3.95-.75-2.33-1.2-3.27-2.1c-.94-.9-1.68-1.97-2.22-3.2-.55-1.23-.83-2.57-.83-4.03s.28-2.8,.83-4.03c.54-1.23,1.29-2.3,2.22-3.2,.94-.9,2.03-1.61,3.27-2.11s2.56-.75,3.95-.75,2.7,.25,3.95,.75,2.34,1.21,3.3,2.11c.95,.9,1.7,1.97,2.25,3.2,.55,1.23,.83,2.57,.83,4.03s-.28,2.8-.83,4.03Z"/>
      <path class="cls-3" d="M1251.89,176.4c2.62-.61,4.6-1.79,5.94-3.52s2.01-3.98,2.01-6.77c0-1.55-.25-3.01-.75-4.36-.5-1.36-1.24-2.56-2.23-3.59s-2.24-1.85-3.76-2.45c-1.52-.6-3.3-.9-5.33-.9h-14.78v36.56h9.5v-14.06l9.07,14.06h11.83l-11.5-14.98Zm-3.3-6.4c-1,.78-2.44,1.17-4.31,1.17h-1.79v-9.02h1.79c1.87,0,3.31,.39,4.31,1.17,1,.78,1.5,1.89,1.5,3.35s-.5,2.56-1.5,3.34Z"/>
      <path class="cls-3" d="M1315.44,156.77c-1.81-.97-3.7-1.7-5.67-2.2-1.97-.5-3.86-.75-5.67-.75-1.94,0-3.69,.29-5.26,.88-1.57,.58-2.89,1.4-3.98,2.45s-1.93,2.31-2.52,3.78c-.6,1.47-.9,3.11-.9,4.92s.28,3.31,.85,4.48c.56,1.18,1.31,2.15,2.23,2.93s1.97,1.4,3.15,1.86c1.18,.47,2.38,.9,3.62,1.29,1.03,.35,1.91,.68,2.64,.97,.73,.29,1.31,.61,1.77,.95,.45,.34,.78,.71,.97,1.12,.2,.4,.29,.88,.29,1.43,0,.9-.38,1.72-1.14,2.42-.76,.71-1.91,1.07-3.47,1.07-1.36,0-2.73-.3-4.12-.92-1.39-.61-2.8-1.55-4.22-2.81l-4.07,7.66c3.94,2.75,8.23,4.12,12.85,4.12,2.23,0,4.22-.3,5.99-.9,1.76-.6,3.25-1.44,4.46-2.52,1.21-1.08,2.13-2.38,2.76-3.91,.63-1.52,.95-3.21,.95-5.09,0-2.78-.72-5.04-2.15-6.77-1.44-1.73-3.71-3.11-6.81-4.15-.78-.26-1.56-.5-2.35-.73-.79-.23-1.5-.49-2.13-.8-.63-.3-1.14-.67-1.53-1.09-.39-.42-.58-.95-.58-1.6,0-.94,.39-1.69,1.17-2.27s1.78-.88,3.01-.88c.97,0,1.97,.2,3,.61,1.04,.4,2.07,1.02,3.1,1.86l3.78-7.42Z"/>
    </g>
    <g>
      <path class="cls-3" d="M471.66,.19l53.87,120.4h-25.68l-7.98-17.93h-40.4l-7.98,17.93h-25.61L471.66,.19Zm10.83,81.54l-10.76-24.96-10.9,24.96s21.66,0,21.66,0Z"/>
      <path class="cls-3" d="M623.74,67.82V2.32h23.78V123.01l-71.14-67.77V120.74h-23.71V.12l71.07,67.7Z"/>
      <path class="cls-3" d="M714.44,2.61c18.54,0,33.04,7.36,43.11,17.34,10.54,10.59,15.81,24.51,15.81,41.76s-5.27,31.12-15.81,41.61c-11.61,11.52-25.98,17.27-43.11,17.27h-31.4V2.68h31.4v-.08Zm-.07,23.5h-7.68V96.95h7.91c21.27,0,35.13-14.12,35.13-35.42,0-21.11-14.11-35.42-35.36-35.42Z"/>
      <path class="cls-3" d="M875.1,2.32V25.95h-47.43v23.78h35.57v23.64h-35.57v23.78h47.43v23.57h-71.14V2.32h71.14Z"/>
      <path class="cls-3" d="M905.37,2.61h38.5c13.14,0,23.76,4.96,30.88,12.01,7.18,7.18,11.42,13.74,11.42,26.79v3.07c0,7.95-2.49,15.44-7.46,22.46-4.15,5.8-7.42,8.27-14.12,10.9l27.44,42.75h-28.98l-33.88-52.19v52.19h-23.71l-.08-117.98Zm56.36,39.53c0-4.29-1.56-8.08-4.68-11.35-3.08-2.99-8.92-4.68-14.64-4.68h-13.32V58.67h9.15v.07h7.91c8.64,0,15.59-7.61,15.59-16.61Z"/>
      <path class="cls-3" d="M1051.89,97.36c6.55,0,13.78-5.44,13.78-11.98,0-10.77-14.46-12.27-22.61-15.1-14.39-4.9-27.09-16.71-27.09-32.78,0-19.89,16.14-35.92,36.03-35.92,18.14,0,33.17,13.45,35.61,30.95l-23.54,4.97c0-6.48-5.44-11.92-11.92-11.92s-12.03,5.44-12.03,11.99c0,10.63,13.46,13.45,21.65,15.89,14.89,4.29,28.02,15.64,28.02,32.06,0,19.89-17.86,35.96-37.72,35.96-18.25,0-34.75-13.38-37.43-30.95l23.54-5.01c0,6.58,7.16,11.95,13.81,11.95l-.11-.11Z"/>
      <path class="cls-3" d="M1191.46,2.32V25.95h-47.43v23.78h35.57v23.64h-35.57v23.78h47.43v23.57h-71.14V2.32h71.14Z"/>
      <path class="cls-3" d="M1293.12,67.82V2.32h23.78V123.01l-71.14-67.77V120.74h-23.71V.12l71.07,67.7Z"/>
    </g>
  </g>
</svg>